<svg width="1080" height="627" viewBox="0 0 1080 627" fill="none" xmlns="http://www.w3.org/2000/svg">
<rect width="1080" height="627" fill="url(#paint0_linear_970_2)"/>
<path d="M704.355 70H375.279C337.017 70 306 101.017 306 139.279V451.036C306 489.297 337.017 520.315 375.279 520.315H701.429C703.35 520.315 705.24 520.794 706.928 521.709L756.589 548.608C764.282 552.775 773.635 547.205 773.635 538.455V139.279C773.635 101.017 742.617 70 704.355 70Z" fill="#1D1D20"/>
<g clip-path="url(#clip0_970_2)">
<rect width="329.076" height="450.315" transform="translate(375.279 70)" fill="#1D1D20"/>
<path d="M375.279 277.316V221.272H384.776L403.301 258.479L421.827 221.272H431.323V277.316H421.437V243.846L405.169 277.316H401.433L385.165 243.846V277.316H375.279Z" fill="white"/>
<path d="M439.085 277.316L456.21 221.272H472.011L489.135 277.316H478.238L462.982 227.889H465.005L449.983 277.316H439.085ZM449.36 265.64V255.755H478.938V265.64H449.36Z" fill="white"/>
<path d="M496.841 277.316V221.272H520.503C521.048 221.272 521.775 221.298 522.683 221.35C523.617 221.376 524.447 221.454 525.174 221.584C528.521 222.103 531.258 223.205 533.386 224.892C535.539 226.578 537.122 228.706 538.134 231.275C539.146 233.817 539.652 236.658 539.652 239.798C539.652 244.494 538.484 248.516 536.149 251.863C533.814 255.184 530.155 257.234 525.174 258.012L520.503 258.323H507.427V277.316H496.841ZM528.443 277.316L517.39 254.509L528.287 252.408L540.43 277.316H528.443ZM507.427 248.438H520.036C520.581 248.438 521.178 248.412 521.827 248.36C522.475 248.308 523.072 248.204 523.617 248.049C525.044 247.66 526.147 247.011 526.925 246.103C527.704 245.169 528.235 244.144 528.521 243.028C528.832 241.887 528.988 240.81 528.988 239.798C528.988 238.786 528.832 237.722 528.521 236.607C528.235 235.465 527.704 234.44 526.925 233.532C526.147 232.598 525.044 231.936 523.617 231.547C523.072 231.391 522.475 231.288 521.827 231.236C521.178 231.184 520.581 231.158 520.036 231.158H507.427V248.438Z" fill="white"/>
<path d="M593.539 278.483L577.193 262.215L583.731 255.677L599.999 271.945L593.539 278.483ZM573.768 278.483C568.164 278.483 563.325 277.264 559.251 274.825C555.203 272.386 552.077 268.974 549.872 264.589C547.692 260.204 546.602 255.106 546.602 249.294C546.602 243.482 547.692 238.384 549.872 233.999C552.077 229.614 555.203 226.202 559.251 223.763C563.325 221.324 568.164 220.105 573.768 220.105C579.372 220.105 584.198 221.324 588.246 223.763C592.319 226.202 595.446 229.614 597.625 233.999C599.831 238.384 600.933 243.482 600.933 249.294C600.933 255.106 599.831 260.204 597.625 264.589C595.446 268.974 592.319 272.386 588.246 274.825C584.198 277.264 579.372 278.483 573.768 278.483ZM573.768 268.52C577.323 268.572 580.28 267.807 582.641 266.224C585.003 264.641 586.767 262.397 587.934 259.491C589.128 256.585 589.725 253.186 589.725 249.294C589.725 245.402 589.128 242.029 587.934 239.175C586.767 236.321 585.003 234.103 582.641 232.52C580.28 230.937 577.323 230.12 573.768 230.068C570.213 230.016 567.255 230.782 564.894 232.364C562.533 233.947 560.756 236.191 559.562 239.097C558.395 242.003 557.811 245.402 557.811 249.294C557.811 253.186 558.395 256.559 559.562 259.413C560.756 262.267 562.533 264.486 564.894 266.068C567.255 267.651 570.213 268.468 573.768 268.52Z" fill="white"/>
<path d="M632.239 278.483C627.724 278.483 623.755 277.575 620.33 275.759C616.905 273.917 614.232 271.335 612.312 268.014C610.392 264.693 609.432 260.788 609.432 256.3V221.35L620.174 221.272V256.222C620.174 258.064 620.485 259.737 621.108 261.242C621.731 262.747 622.587 264.045 623.677 265.134C624.792 266.224 626.077 267.067 627.53 267.664C629.009 268.235 630.578 268.52 632.239 268.52C633.951 268.52 635.534 268.222 636.987 267.625C638.466 267.028 639.75 266.185 640.84 265.095C641.93 264.006 642.773 262.708 643.37 261.203C643.993 259.699 644.304 258.038 644.304 256.222V221.272H655.046V256.3C655.046 260.788 654.086 264.693 652.166 268.014C650.246 271.335 647.573 273.917 644.148 275.759C640.723 277.575 636.754 278.483 632.239 278.483Z" fill="white"/>
<path d="M666.64 277.316V221.272H703.224V231.158H677.226V243.145H698.554V253.03H677.226V267.43H703.224V277.316H666.64Z" fill="white"/>
<path d="M395.329 367.62V317.135H376.003V306.323H426.233V317.135H406.907V367.62H395.329Z" fill="white"/>
<path d="M427.952 367.62L446.682 306.323H463.965L482.694 367.62H470.775L454.089 313.559H456.302L439.871 367.62H427.952ZM439.19 354.85V344.038H471.542V354.85H439.19Z" fill="white"/>
<path d="M491.122 367.62V306.323H517.003C517.599 306.323 518.394 306.351 519.387 306.408C520.409 306.436 521.317 306.521 522.111 306.663C525.772 307.231 528.766 308.437 531.093 310.282C533.449 312.126 535.18 314.453 536.287 317.263C537.393 320.044 537.947 323.151 537.947 326.585C537.947 330.019 537.379 333.141 536.244 335.95C535.137 338.731 533.406 341.044 531.051 342.889C528.724 344.733 525.744 345.939 522.111 346.507C521.317 346.62 520.409 346.705 519.387 346.762C518.366 346.819 517.571 346.847 517.003 346.847H502.701V367.62H491.122ZM502.701 336.035H516.493C517.088 336.035 517.741 336.007 518.451 335.95C519.16 335.893 519.813 335.78 520.409 335.609C521.97 335.184 523.176 334.474 524.027 333.481C524.878 332.459 525.46 331.338 525.772 330.118C526.113 328.87 526.283 327.692 526.283 326.585C526.283 325.478 526.113 324.315 525.772 323.095C525.46 321.846 524.878 320.725 524.027 319.732C523.176 318.71 521.97 317.986 520.409 317.561C519.813 317.39 519.16 317.277 518.451 317.22C517.741 317.163 517.088 317.135 516.493 317.135H502.701V336.035Z" fill="white"/>
<path d="M538.795 367.62L557.525 306.323H574.807L593.537 367.62H581.618L564.931 313.559H567.145L550.714 367.62H538.795ZM550.033 354.85V344.038H582.384V354.85H550.033Z" fill="white"/>
<path d="M625.842 368.897C621.983 368.897 618.308 368.216 614.817 366.854C611.327 365.464 608.234 363.42 605.538 360.724C602.87 358.028 600.756 354.694 599.195 350.721C597.663 346.748 596.896 342.165 596.896 336.972C596.896 330.189 598.188 324.428 600.77 319.689C603.381 314.922 606.871 311.289 611.242 308.792C615.64 306.294 620.507 305.046 625.842 305.046C633.732 305.046 639.932 306.876 644.445 310.537C648.957 314.198 651.979 319.377 653.511 326.074L641.678 327.777C640.571 324.201 638.755 321.349 636.229 319.221C633.732 317.064 630.525 315.972 626.609 315.943C622.721 315.886 619.486 316.724 616.903 318.455C614.321 320.186 612.377 322.64 611.071 325.819C609.794 328.997 609.156 332.715 609.156 336.972C609.156 341.228 609.794 344.918 611.071 348.039C612.377 351.161 614.321 353.587 616.903 355.318C619.486 357.049 622.721 357.943 626.609 358C629.248 358.057 631.632 357.603 633.76 356.638C635.917 355.673 637.733 354.155 639.209 352.083C640.684 350.012 641.734 347.358 642.359 344.123H632.653V335.184H654.703C654.76 335.553 654.803 336.205 654.831 337.142C654.859 338.078 654.874 338.618 654.874 338.759C654.874 344.634 653.682 349.841 651.298 354.382C648.914 358.922 645.551 362.484 641.209 365.066C636.867 367.62 631.745 368.897 625.842 368.897Z" fill="white"/>
<path d="M664.203 367.62V306.323H704.217V317.135H675.782V330.246H699.109V341.058H675.782V356.808H704.217V367.62H664.203Z" fill="white"/>
</g>
<defs>
<linearGradient id="paint0_linear_970_2" x1="1080" y1="479.537" x2="93.6711" y2="-19.7613" gradientUnits="userSpaceOnUse">
<stop stop-color="#D1E9D2"/>
<stop offset="0.413462" stop-color="#D0ECFB"/>
<stop offset="1" stop-color="#FBC0D6"/>
</linearGradient>
<clipPath id="clip0_970_2">
<rect width="329.076" height="450.315" fill="white" transform="translate(375.279 70)"/>
</clipPath>
</defs>
</svg>
