<svg width="21" height="21" viewBox="0 0 21 21" fill="none" xmlns="http://www.w3.org/2000/svg">
<mask id="mask0_1153_19" style="mask-type:alpha" maskUnits="userSpaceOnUse" x="0" y="0" width="21" height="21">
<rect x="0.5" y="0.849976" width="20" height="20" fill="#D9D9D9"/>
</mask>
<g mask="url(#mask0_1153_19)">
<path d="M15.7519 11.6H14.2554C14.0435 11.6 13.8646 11.5285 13.7188 11.3856C13.5729 11.2427 13.5 11.0656 13.5 10.8544C13.5 10.6431 13.5717 10.4646 13.715 10.3187C13.8585 10.1729 14.0362 10.1 14.2481 10.1H15.7446C15.9565 10.1 16.1354 10.1714 16.2812 10.3144C16.4271 10.4573 16.5 10.6344 16.5 10.8456C16.5 11.0569 16.4283 11.2354 16.285 11.3812C16.1415 11.5271 15.9638 11.6 15.7519 11.6ZM12.625 14.1833C12.75 14.0167 12.9091 13.9194 13.1023 13.8917C13.2956 13.8639 13.4768 13.9125 13.6458 14.0375L14.875 14.9333C15.0417 15.0583 15.1389 15.225 15.1667 15.4333C15.1944 15.6417 15.1458 15.8292 15.0208 15.9958C14.8958 16.1625 14.7292 16.2597 14.5208 16.2875C14.3125 16.3153 14.1217 16.2658 13.9483 16.1392L12.76 15.2275C12.5867 15.1008 12.4896 14.9368 12.4688 14.7354C12.4479 14.534 12.5 14.35 12.625 14.1833ZM14.8442 6.76602L13.6558 7.66311C13.4825 7.78769 13.2951 7.83262 13.0938 7.7979C12.8924 7.76318 12.7292 7.66248 12.6042 7.49582C12.4792 7.32915 12.4292 7.14582 12.4542 6.94582C12.4793 6.74582 12.5796 6.58332 12.755 6.45832L13.9583 5.55832C14.125 5.43332 14.3125 5.38471 14.5208 5.41248C14.7292 5.44026 14.8958 5.53748 15.0208 5.70415C15.1458 5.87082 15.191 6.05832 15.1562 6.26665C15.1215 6.47498 15.0175 6.64144 14.8442 6.76602ZM6.5 12.85H4.25C4.0375 12.85 3.85938 12.7781 3.71563 12.6344C3.57188 12.4906 3.5 12.3125 3.5 12.1V9.59998C3.5 9.38748 3.57188 9.20936 3.71563 9.06561C3.85938 8.92186 4.0375 8.84998 4.25 8.84998H6.5L9.22917 6.12082C9.46528 5.88471 9.73611 5.83227 10.0417 5.96352C10.3472 6.09477 10.5 6.32922 10.5 6.66686V15.031C10.5 15.3687 10.3472 15.6035 10.0417 15.7354C9.73611 15.8673 9.46528 15.8153 9.22917 15.5792L6.5 12.85ZM9 8.47498L7.125 10.35H5V11.35H7.125L9 13.225V8.47498Z" fill="#06597A"/>
</g>
</svg>
