<svg width="1000" height="581" viewBox="0 0 1000 581" fill="none" xmlns="http://www.w3.org/2000/svg">
<g clip-path="url(#clip0_2156_345)">
<path d="M1000 0H0V580.556H1000V0Z" fill="url(#paint0_linear_2156_345)" fill-opacity="0.75"/>
<path d="M652.181 64.8146H347.481C312.053 64.8146 283.333 93.534 283.333 128.962V417.626C283.333 453.052 312.053 481.773 347.481 481.773H649.471C651.25 481.773 653 482.216 654.563 483.064L700.545 507.97C707.669 511.828 716.329 506.671 716.329 498.569V128.962C716.329 93.534 687.608 64.8146 652.181 64.8146Z" fill="#1D1D20"/>
<mask id="mask0_2156_345" style="mask-type:luminance" maskUnits="userSpaceOnUse" x="347" y="64" width="306" height="418">
<path d="M652.181 64.8146H347.481V481.773H652.181V64.8146Z" fill="white"/>
</mask>
<g mask="url(#mask0_2156_345)">
<path d="M652.181 64.8146H347.481V481.773H652.181V64.8146Z" fill="#1D1D20"/>
<path d="M347.481 256.774V204.881H356.274L373.427 239.332L390.581 204.881H399.373V256.774H390.22V225.783L375.157 256.774H371.697L356.634 225.783V256.774H347.481Z" fill="#FEFFFF"/>
<path d="M406.561 256.774L422.417 204.881H437.048L452.903 256.774H442.813L428.687 211.008H430.561L416.651 256.774H406.561ZM416.074 245.963V236.81H443.461V245.963H416.074Z" fill="#FEFFFF"/>
<path d="M460.038 256.774V204.881H481.947C482.452 204.881 483.125 204.905 483.966 204.954C484.831 204.978 485.599 205.05 486.272 205.17C489.371 205.651 491.906 206.671 493.876 208.233C495.87 209.794 497.335 211.765 498.272 214.143C499.209 216.497 499.678 219.128 499.678 222.035C499.678 226.383 498.596 230.107 496.434 233.206C494.272 236.281 490.884 238.179 486.272 238.9L481.947 239.188H469.84V256.774H460.038ZM489.299 256.774L479.065 235.656L489.155 233.711L500.398 256.774H489.299ZM469.84 230.035H481.515C482.02 230.035 482.572 230.011 483.173 229.963C483.773 229.915 484.326 229.818 484.831 229.675C486.152 229.315 487.173 228.714 487.894 227.873C488.615 227.008 489.107 226.059 489.371 225.026C489.659 223.969 489.804 222.972 489.804 222.035C489.804 221.098 489.659 220.113 489.371 219.08C489.107 218.023 488.615 217.074 487.894 216.233C487.173 215.368 486.152 214.755 484.831 214.395C484.326 214.251 483.773 214.155 483.173 214.107C482.572 214.059 482.02 214.035 481.515 214.035H469.84V230.035Z" fill="#FEFFFF"/>
<path d="M549.573 257.854L534.438 242.791L540.492 236.738L555.554 251.801L549.573 257.854ZM531.267 257.854C526.078 257.854 521.597 256.726 517.825 254.467C514.077 252.209 511.182 249.05 509.141 244.99C507.122 240.929 506.113 236.209 506.113 230.828C506.113 225.446 507.122 220.726 509.141 216.665C511.182 212.605 514.077 209.446 517.825 207.188C521.597 204.929 526.078 203.801 531.267 203.801C536.455 203.801 540.924 204.929 544.672 207.188C548.443 209.446 551.339 212.605 553.356 216.665C555.399 220.726 556.419 225.446 556.419 230.828C556.419 236.209 555.399 240.929 553.356 244.99C551.339 249.05 548.443 252.209 544.672 254.467C540.924 256.726 536.455 257.854 531.267 257.854ZM531.267 248.629C534.558 248.678 537.296 247.969 539.482 246.503C541.669 245.038 543.303 242.96 544.383 240.269C545.489 237.578 546.041 234.431 546.041 230.828C546.041 227.224 545.489 224.101 544.383 221.458C543.303 218.815 541.669 216.762 539.482 215.296C537.296 213.83 534.558 213.074 531.267 213.026C527.975 212.978 525.236 213.687 523.05 215.152C520.864 216.617 519.218 218.695 518.113 221.386C517.032 224.077 516.491 227.224 516.491 230.828C516.491 234.431 517.032 237.554 518.113 240.197C519.218 242.84 520.864 244.894 523.05 246.359C525.236 247.825 527.975 248.581 531.267 248.629Z" fill="#FEFFFF"/>
<path d="M585.407 257.854C581.226 257.854 577.551 257.014 574.38 255.332C571.209 253.627 568.734 251.236 566.956 248.161C565.178 245.086 564.289 241.47 564.289 237.315V204.954L574.236 204.881V237.242C574.236 238.948 574.524 240.497 575.1 241.891C575.677 243.284 576.47 244.486 577.479 245.494C578.512 246.504 579.701 247.284 581.047 247.837C582.416 248.366 583.869 248.629 585.407 248.629C586.992 248.629 588.458 248.354 589.803 247.801C591.173 247.248 592.362 246.467 593.371 245.458C594.38 244.45 595.161 243.248 595.713 241.854C596.29 240.462 596.578 238.924 596.578 237.242V204.881H606.525V237.315C606.525 241.47 605.636 245.086 603.858 248.161C602.08 251.236 599.605 253.627 596.434 255.332C593.262 257.014 589.587 257.854 585.407 257.854Z" fill="#FEFFFF"/>
<path d="M617.259 256.774V204.881H651.133V214.035H627.061V225.134H646.809V234.287H627.061V247.62H651.133V256.774H617.259Z" fill="#FEFFFF"/>
<path d="M366.045 340.389V293.643H348.151V283.632H394.66V293.643H376.766V340.389H366.045Z" fill="#FEFFFF"/>
<path d="M396.252 340.389L413.595 283.632H429.597L446.939 340.389H435.903L420.453 290.332H422.502L407.288 340.389H396.252ZM406.658 328.565V318.554H436.613V328.565H406.658Z" fill="#FEFFFF"/>
<path d="M454.743 340.389V283.632H478.707C479.258 283.632 479.995 283.658 480.914 283.711C481.86 283.737 482.701 283.816 483.436 283.947C486.826 284.473 489.598 285.59 491.753 287.298C493.934 289.005 495.537 291.16 496.562 293.762C497.586 296.337 498.099 299.214 498.099 302.393C498.099 305.573 497.573 308.464 496.522 311.065C495.497 313.64 493.895 315.781 491.714 317.49C489.559 319.197 486.8 320.314 483.436 320.84C482.701 320.944 481.86 321.023 480.914 321.076C479.969 321.129 479.232 321.154 478.707 321.154H465.464V340.389H454.743ZM465.464 311.143H478.234C478.785 311.143 479.39 311.117 480.047 311.065C480.704 311.012 481.308 310.907 481.86 310.749C483.306 310.355 484.422 309.698 485.21 308.779C485.998 307.832 486.537 306.794 486.826 305.665C487.142 304.509 487.299 303.418 487.299 302.393C487.299 301.368 487.142 300.292 486.826 299.162C486.537 298.005 485.998 296.967 485.21 296.048C484.422 295.102 483.306 294.431 481.86 294.038C481.308 293.879 480.704 293.775 480.047 293.722C479.39 293.669 478.785 293.643 478.234 293.643H465.464V311.143Z" fill="#FEFFFF"/>
<path d="M498.885 340.389L516.227 283.632H532.229L549.572 340.389H538.535L523.085 290.332H525.135L509.921 340.389H498.885ZM509.29 328.565V318.554H539.245V328.565H509.29Z" fill="#FEFFFF"/>
<path d="M579.483 341.571C575.91 341.571 572.507 340.941 569.275 339.679C566.043 338.392 563.18 336.5 560.683 334.003C558.213 331.507 556.255 328.42 554.81 324.741C553.392 321.063 552.681 316.819 552.681 312.011C552.681 305.73 553.878 300.396 556.268 296.008C558.686 291.594 561.918 288.23 565.965 285.918C570.037 283.605 574.543 282.45 579.483 282.45C586.789 282.45 592.53 284.144 596.708 287.534C600.886 290.924 603.684 295.719 605.103 301.92L594.146 303.497C593.121 300.186 591.44 297.545 589.101 295.575C586.789 293.578 583.819 292.566 580.193 292.54C576.593 292.487 573.598 293.263 571.206 294.866C568.816 296.468 567.016 298.741 565.806 301.684C564.624 304.627 564.033 308.069 564.033 312.011C564.033 315.952 564.624 319.368 565.806 322.258C567.016 325.149 568.816 327.395 571.206 328.998C573.598 330.601 576.593 331.428 580.193 331.481C582.637 331.534 584.844 331.114 586.815 330.22C588.812 329.327 590.493 327.921 591.86 326.003C593.226 324.085 594.198 321.628 594.777 318.632H585.79V310.355H606.206C606.259 310.697 606.299 311.301 606.325 312.168C606.351 313.035 606.365 313.535 606.365 313.666C606.365 319.105 605.261 323.927 603.054 328.131C600.846 332.335 597.732 335.633 593.712 338.024C589.692 340.389 584.949 341.571 579.483 341.571Z" fill="#FEFFFF"/>
<path d="M615.003 340.389V283.632H652.053V293.643H625.724V305.783H647.323V315.794H625.724V330.378H652.053V340.389H615.003Z" fill="#FEFFFF"/>
</g>
</g>
<defs>
<linearGradient id="paint0_linear_2156_345" x1="1000" y1="444.016" x2="86.7325" y2="-18.2976" gradientUnits="userSpaceOnUse">
<stop stop-color="#D1E9D2"/>
<stop offset="0.413462" stop-color="#CCE7F5"/>
<stop offset="1" stop-color="#FFD8E5"/>
</linearGradient>
<clipPath id="clip0_2156_345">
<rect width="1000" height="580.556" fill="white"/>
</clipPath>
</defs>
</svg>
