<svg width="73" height="73" viewBox="0 0 73 73" fill="none" xmlns="http://www.w3.org/2000/svg">
<path d="M35.0083 52.8081C39.3676 51.8534 44.568 50.9435 47.0718 51.3647C51.8224 52.1643 55.2759 55.1793 54.6226 59.062C53.9691 62.9448 49.7189 64.6633 44.9683 63.8638C42.4645 63.4423 37.8482 60.8803 34.0415 58.5513C31.5557 57.0302 32.1614 53.4316 35.0083 52.8081ZM41.0483 19.0054C48.047 13.1777 56.6819 12.0094 61.5405 17.8442C66.3991 23.6791 63.6866 31.9599 56.688 37.7876C51.939 41.7418 37.7176 46.2625 29.0649 48.7603C26.2887 49.5613 23.9649 46.7703 25.2554 44.1851C29.2786 36.1276 36.2996 22.9598 41.0483 19.0054ZM16.769 9.04834C22.323 8.4531 26.2801 13.4263 26.9858 20.0093C27.4214 24.0725 24.9413 33.0718 22.979 39.3657C22.1231 42.1103 18.5436 42.4936 17.1255 39.9927C13.8737 34.2578 9.5426 25.9895 9.10693 21.9263C8.40122 15.3431 11.2149 9.64374 16.769 9.04834Z" fill="#FDECE7"/>
</svg>
