<svg width="72" height="72" viewBox="0 0 72 72" fill="none" xmlns="http://www.w3.org/2000/svg">
<path d="M34.5082 51.9581C38.8675 51.0034 44.0679 50.0935 46.5717 50.5147C51.3223 51.3143 54.7758 54.3293 54.1224 58.212C53.469 62.0948 49.2188 63.8133 44.4681 63.0138C41.9644 62.5923 37.3481 60.0303 33.5414 57.7013C31.0555 56.1802 31.6613 52.5816 34.5082 51.9581ZM40.5482 18.1554C47.5468 12.3277 56.1818 11.1594 61.0404 16.9942C65.899 22.8291 63.1865 31.1099 56.1879 36.9376C51.4389 40.8918 37.2175 45.4125 28.5648 47.9102C25.7886 48.7113 23.4647 45.9203 24.7552 43.335C28.7785 35.2776 35.7995 22.1097 40.5482 18.1554ZM16.2689 8.19833C21.8228 7.6031 25.7799 12.5763 26.4857 19.1593C26.9213 23.2225 24.4412 32.2218 22.4789 38.5157C21.623 41.2603 18.0434 41.6436 16.6254 39.1427C13.3736 33.4078 9.04247 25.1394 8.60681 21.0763C7.9011 14.4931 10.7148 8.79373 16.2689 8.19833Z" fill="#FEFFFF"/>
</svg>
