<svg width="72" height="72" viewBox="0 0 72 72" fill="none" xmlns="http://www.w3.org/2000/svg">
<path fill-rule="evenodd" clip-rule="evenodd" d="M36.0001 56.3252C51.3241 56.3252 63.3795 46.5168 69.9996 40.6077C72.6668 38.2269 72.6668 34.2483 69.9996 31.8675C63.3795 25.9584 51.3241 16.15 36.0001 16.15C20.6759 16.15 8.62066 25.9584 2.00048 31.8675C-0.666831 34.2483 -0.666827 38.2269 2.00049 40.6077C8.62066 46.5168 20.6759 56.3252 36.0001 56.3252ZM36.0001 50.2522C43.7402 50.2522 50.0147 43.9777 50.0147 36.2375C50.0147 28.4975 43.7402 22.223 36.0001 22.223C28.26 22.223 21.9855 28.4975 21.9855 36.2375C21.9855 43.9777 28.26 50.2522 36.0001 50.2522Z" fill="#D1E9D2"/>
</svg>
