<svg width="73" height="73" viewBox="0 0 73 73" fill="none" xmlns="http://www.w3.org/2000/svg">
<g clip-path="url(#clip0_1162_151)">
<path fill-rule="evenodd" clip-rule="evenodd" d="M36.5001 57.1752C51.8241 57.1752 63.8795 47.3668 70.4996 41.4577C73.1668 39.0769 73.1668 35.0983 70.4996 32.7175C63.8795 26.8084 51.8241 17 36.5001 17C21.1759 17 9.12066 26.8084 2.50048 32.7175C-0.166831 35.0983 -0.166827 39.0769 2.50049 41.4577C9.12066 47.3668 21.1759 57.1752 36.5001 57.1752ZM36.5001 51.1022C44.2402 51.1022 50.5147 44.8277 50.5147 37.0875C50.5147 29.3475 44.2402 23.073 36.5001 23.073C28.76 23.073 22.4855 29.3475 22.4855 37.0875C22.4855 44.8277 28.76 51.1022 36.5001 51.1022Z" fill="#E0F0E1"/>
</g>
<defs>
<clipPath id="clip0_1162_151">
<rect width="72" height="72" fill="white" transform="translate(0.5 0.850006)"/>
</clipPath>
</defs>
</svg>
