<svg width="20" height="21" viewBox="0 0 20 21" fill="none" xmlns="http://www.w3.org/2000/svg">
<mask id="mask0_1153_7" style="mask-type:alpha" maskUnits="userSpaceOnUse" x="0" y="0" width="20" height="21">
<rect y="0.849976" width="20" height="20" fill="#D9D9D9"/>
</mask>
<g mask="url(#mask0_1153_7)">
<path d="M10 17.3083C9.81944 17.3083 9.64236 17.2771 9.46875 17.2146C9.29514 17.1521 9.13194 17.0514 8.97917 16.9125L7.75 15.7875C6.23611 14.4403 4.89931 13.1243 3.73958 11.8396C2.57986 10.5548 2 9.15553 2 7.64164C2 6.41914 2.41563 5.39824 3.24688 4.57893C4.07813 3.75963 5.11389 3.34998 6.35417 3.34998C7.06528 3.34998 7.73611 3.49928 8.36667 3.79789C8.99722 4.0965 9.54167 4.52359 10 5.07914C10.4861 4.52359 11.0393 4.0965 11.6596 3.79789C12.2799 3.49928 12.9397 3.34998 13.6392 3.34998C14.8797 3.34998 15.9167 3.75963 16.75 4.57893C17.5833 5.39824 18 6.41914 18 7.64164C18 9.15553 17.4201 10.5548 16.2604 11.8396C15.1007 13.1243 13.7639 14.4403 12.25 15.7875L11.0208 16.9125C10.8681 17.0514 10.7049 17.1521 10.5312 17.2146C10.3576 17.2771 10.1806 17.3083 10 17.3083ZM9.29167 6.64164C8.95833 6.0722 8.54167 5.63123 8.04167 5.31873C7.54167 5.00623 6.97917 4.84998 6.35417 4.84998C5.53875 4.84998 4.85917 5.11386 4.31542 5.64164C3.77181 6.16942 3.5 6.8388 3.5 7.64977C3.5 8.35268 3.75 9.09303 4.25 9.87081C4.75 10.6486 5.34722 11.409 6.04167 12.1521C6.73611 12.8951 7.45139 13.5861 8.1875 14.225C8.92361 14.8639 9.52778 15.3916 10 15.8083C10.4722 15.3916 11.0764 14.8639 11.8125 14.225C12.5486 13.5861 13.2639 12.8951 13.9583 12.1521C14.6528 11.409 15.25 10.6486 15.75 9.87081C16.25 9.09303 16.5 8.35268 16.5 7.64977C16.5 6.8388 16.2282 6.16942 15.6846 5.64164C15.1408 5.11386 14.4613 4.84998 13.6458 4.84998C13.0208 4.84998 12.4549 5.00623 11.9479 5.31873C11.441 5.63123 11.0208 6.0722 10.6875 6.64164C10.6181 6.78053 10.5205 6.88123 10.3948 6.94373C10.2691 7.00623 10.1372 7.03748 9.99896 7.03748C9.86076 7.03748 9.72569 7.00623 9.59375 6.94373C9.46181 6.88123 9.36111 6.78053 9.29167 6.64164Z" fill="#B75676"/>
</g>
</svg>
