<svg width="20" height="21" viewBox="0 0 20 21" fill="none" xmlns="http://www.w3.org/2000/svg">
<mask id="mask0_1016_246" style="mask-type:alpha" maskUnits="userSpaceOnUse" x="0" y="0" width="20" height="21">
<rect y="0.849976" width="20" height="20" fill="#D9D9D9"/>
</mask>
<g mask="url(#mask0_1016_246)">
<path d="M10 17.85L8.95833 16.9125C7.56944 15.6764 6.42361 14.6173 5.52083 13.7354C4.61806 12.8534 3.90625 12.0687 3.38542 11.3812C2.86458 10.6937 2.50347 10.0653 2.30208 9.49581C2.10069 8.92636 2 8.34303 2 7.74581C2 6.5097 2.42361 5.46803 3.27083 4.62081C4.11806 3.77359 5.15972 3.34998 6.39583 3.34998C7.07639 3.34998 7.73611 3.49581 8.375 3.78748C9.01389 4.07914 9.55556 4.48886 10 5.01664C10.4444 4.48886 10.9861 4.07914 11.625 3.78748C12.2639 3.49581 12.9236 3.34998 13.6042 3.34998C14.8403 3.34998 15.8819 3.77359 16.7292 4.62081C17.5764 5.46803 18 6.5097 18 7.74581C18 8.34303 17.9028 8.91942 17.7083 9.47498C17.5139 10.0305 17.1562 10.6486 16.6354 11.3291C16.1146 12.0097 15.3993 12.7979 14.4896 13.6937C13.5799 14.5896 12.4167 15.6764 11 16.9541L10 17.85ZM10 15.8291C11.2917 14.6764 12.3542 13.6937 13.1875 12.8812C14.0208 12.0687 14.684 11.3604 15.1771 10.7562C15.6701 10.1521 16.0139 9.61386 16.2083 9.14164C16.4028 8.66942 16.5 8.20414 16.5 7.74581C16.5 6.92636 16.2222 6.23886 15.6667 5.68331C15.1111 5.12775 14.4236 4.84998 13.6042 4.84998C13.1181 4.84998 12.6632 4.95067 12.2396 5.15206C11.816 5.35345 11.4514 5.6347 11.1458 5.99581L10.4167 6.84998H9.58333L8.85417 5.99581C8.54861 5.6347 8.17708 5.35345 7.73958 5.15206C7.30208 4.95067 6.85417 4.84998 6.39583 4.84998C5.57639 4.84998 4.88889 5.12775 4.33333 5.68331C3.77778 6.23886 3.5 6.92636 3.5 7.74581C3.5 8.20414 3.59028 8.659 3.77083 9.11039C3.95139 9.56178 4.28125 10.0861 4.76042 10.6833C5.23958 11.2805 5.89931 11.9889 6.73958 12.8083C7.57986 13.6278 8.66667 14.6347 10 15.8291Z" fill="#B75676"/>
</g>
</svg>
