<svg width="24" height="24" viewBox="0 0 24 24" fill="none" xmlns="http://www.w3.org/2000/svg">
<mask id="mask0_1016_179" style="mask-type:alpha" maskUnits="userSpaceOnUse" x="0" y="0" width="24" height="24">
<rect width="24" height="24" fill="#D9D9D9"/>
</mask>
<g mask="url(#mask0_1016_179)">
<path d="M19.5879 21.2273L13.2462 14.8853C12.7502 15.2694 12.1782 15.5742 11.5302 15.7995C10.8822 16.0248 10.1895 16.1375 9.4522 16.1375C7.59953 16.1375 6.03011 15.4944 4.74395 14.2083C3.45778 12.9219 2.8147 11.3525 2.8147 9.5C2.8147 7.6475 3.45778 6.07809 4.74395 4.79175C6.03011 3.50559 7.59953 2.8625 9.4522 2.8625C11.3047 2.8625 12.874 3.50559 14.1602 4.79175C15.4465 6.07809 16.0897 7.6475 16.0897 9.5C16.0897 10.2413 15.977 10.934 15.7517 11.578C15.5262 12.222 15.2214 12.79 14.8374 13.282L21.1852 19.6358L19.5879 21.2273ZM9.4522 13.8625C10.6662 13.8625 11.6968 13.4389 12.5439 12.5918C13.3911 11.7448 13.8147 10.7142 13.8147 9.5C13.8147 8.28584 13.3911 7.25525 12.5439 6.40825C11.6968 5.56109 10.6662 5.1375 9.4522 5.1375C8.23803 5.1375 7.20736 5.56109 6.3602 6.40825C5.5132 7.25525 5.0897 8.28584 5.0897 9.5C5.0897 10.7142 5.5132 11.7448 6.3602 12.5918C7.20736 13.4389 8.23803 13.8625 9.4522 13.8625Z" fill="#49494F"/>
</g>
</svg>
