<svg width="20" height="21" viewBox="0 0 20 21" fill="none" xmlns="http://www.w3.org/2000/svg">
<mask id="mask0_1153_13" style="mask-type:alpha" maskUnits="userSpaceOnUse" x="0" y="0" width="20" height="21">
<rect y="0.849976" width="20" height="20" fill="#D9D9D9"/>
</mask>
<g mask="url(#mask0_1153_13)">
<path d="M8.00063 13.85C6.61132 13.85 5.43056 13.3639 4.45833 12.3916C3.48611 11.4194 3 10.2389 3 8.84998C3 7.46109 3.48611 6.28053 4.45833 5.30831C5.43056 4.33609 6.61111 3.84998 8 3.84998C9.38889 3.84998 10.5694 4.33609 11.5417 5.30831C12.5139 6.28053 13 7.4613 13 8.8506C13 9.41157 12.9132 9.9406 12.7396 10.4377C12.566 10.9348 12.3264 11.3916 12.0208 11.8083L16.4792 16.2666C16.6319 16.4194 16.7083 16.593 16.7083 16.7875C16.7083 16.9819 16.6319 17.1555 16.4792 17.3083C16.3264 17.4611 16.1493 17.5375 15.9479 17.5375C15.7465 17.5375 15.5694 17.4611 15.4167 17.3083L10.9583 12.8708C10.5417 13.1764 10.0848 13.4159 9.58771 13.5896C9.09063 13.7632 8.5616 13.85 8.00063 13.85ZM8 12.35C8.97222 12.35 9.79861 12.0097 10.4792 11.3291C11.1597 10.6486 11.5 9.8222 11.5 8.84998C11.5 7.87775 11.1597 7.05136 10.4792 6.37081C9.79861 5.69025 8.97222 5.34998 8 5.34998C7.02778 5.34998 6.20139 5.69025 5.52083 6.37081C4.84028 7.05136 4.5 7.87775 4.5 8.84998C4.5 9.8222 4.84028 10.6486 5.52083 11.3291C6.20139 12.0097 7.02778 12.35 8 12.35Z" fill="#265A34"/>
</g>
</svg>
