<svg width="73" height="73" viewBox="0 0 73 73" fill="none" xmlns="http://www.w3.org/2000/svg">
<g clip-path="url(#clip0_1162_148)">
<path d="M54.1062 56.1539H44.8077C36.396 56.1539 29.5769 49.3348 29.5769 40.9231C29.5769 37.8643 27.0973 35.3846 24.0385 35.3846H21.8231C10.0467 35.3846 0.5 25.7059 0.5 13.9295C0.5 11.7727 2.24848 10 4.40533 10H13.5769C15.2763 10 16.6538 11.3776 16.6538 13.0769C16.6538 16.4756 19.409 19.2308 22.8077 19.2308H30.5C38.9117 19.2308 45.7308 26.0498 45.7308 34.4615C45.7308 37.5204 48.2104 40 51.2692 40H54.4032C64.3701 40 72.4236 48.1295 72.3299 58.0961L72.3089 60.3371C72.2869 62.6724 70.3876 64.5539 68.0523 64.5539H62.5062C59.1041 64.5539 56.3462 61.796 56.3462 58.3939C56.3462 57.1567 55.3433 56.1539 54.1062 56.1539Z" fill="#DDEFF8"/>
</g>
<defs>
<clipPath id="clip0_1162_148">
<rect width="72" height="72" fill="white" transform="translate(0.5 0.850006)"/>
</clipPath>
</defs>
</svg>
