<svg width="72" height="72" viewBox="0 0 72 72" fill="none" xmlns="http://www.w3.org/2000/svg">
<path d="M50.8337 53.9065H43.1102C34.9258 53.9065 28.2911 47.2717 28.2911 39.0873C28.2911 36.1112 25.8784 33.6986 22.9023 33.6986H20.7468C9.28865 33.6986 0 24.2814 0 12.8233C0 10.7247 1.70122 9 3.79978 9H12.7235C14.3769 9 15.7173 10.3404 15.7173 11.9938C15.7173 15.3006 18.398 17.9813 21.7048 17.9813H29.1892C37.3736 17.9813 44.0083 24.616 44.0083 32.8004C44.0083 35.7766 46.421 38.1892 49.3971 38.1892H51.7255C62.8919 38.1892 71.9144 47.2969 71.8095 58.4628C71.7906 60.4657 70.1616 62.0795 68.1586 62.0795H59.0067C57.5023 62.0795 56.2827 60.8599 56.2827 59.3555C56.2827 56.3461 53.8431 53.9065 50.8337 53.9065Z" fill="#CCE7F5"/>
</svg>
