<svg width="73" height="73" viewBox="0 0 73 73" fill="none" xmlns="http://www.w3.org/2000/svg">
<g clip-path="url(#clip0_1202_493)">
<path d="M51.3337 54.7565H43.6102C35.4258 54.7565 28.7911 48.1217 28.7911 39.9373C28.7911 36.9612 26.3784 34.5486 23.4023 34.5486H21.2468C9.78865 34.5486 0.5 25.1314 0.5 13.6733C0.5 11.5748 2.20122 9.85001 4.29978 9.85001H13.2235C14.8769 9.85001 16.2173 11.1904 16.2173 12.8438C16.2173 16.1506 18.898 18.8313 22.2048 18.8313H29.6892C37.8736 18.8313 44.5083 25.466 44.5083 33.6504C44.5083 36.6266 46.921 39.0392 49.8971 39.0392H52.2255C63.3919 39.0392 72.4144 48.1469 72.3095 59.3128C72.2906 61.3157 70.6616 62.9295 68.6586 62.9295H59.5067C58.0023 62.9295 56.7827 61.7099 56.7827 60.2055C56.7827 57.1961 54.3431 54.7565 51.3337 54.7565Z" fill="#DDEFF8"/>
</g>
<defs>
<clipPath id="clip0_1202_493">
<rect width="72" height="72" fill="white" transform="translate(0.5 0.850006)"/>
</clipPath>
</defs>
</svg>
