<svg width="251" height="237" viewBox="0 0 251 237" fill="none" xmlns="http://www.w3.org/2000/svg">
<g clip-path="url(#clip0_2034_320)">
<path d="M25.24 50.9842C32.5325 50.9843 38.3504 55.666 41.697 58.6532C42.5401 59.4057 42.54 60.6262 41.697 61.3787C38.3504 64.3659 32.5326 69.0485 25.24 69.0487C17.9472 69.0487 12.1287 64.366 8.78198 61.3787C7.93915 60.6261 7.93897 59.4056 8.78198 58.6532C12.1287 55.6659 17.9472 50.9842 25.24 50.9842ZM25.24 51.7801C20.6915 51.7801 17.0037 55.4679 17.0037 60.0164C17.0038 64.5649 20.6915 68.2518 25.24 68.2518C29.7884 68.2516 33.4752 64.5648 33.4753 60.0164C33.4753 55.468 29.7884 51.7803 25.24 51.7801Z" fill="#FFEBF1" stroke="#FFD8E5" stroke-width="2.27865"/>
</g>
<path d="M184.367 26.3707C186.626 25.8661 189.431 25.3573 190.752 25.5797C193.158 25.9846 194.906 27.5112 194.575 29.4771C194.244 31.4428 192.092 32.3126 189.687 31.9078C188.366 31.6854 185.883 30.2864 183.913 29.0699C182.752 28.3533 183.036 26.6679 184.367 26.3707ZM187.702 9.19293C191.245 6.24202 195.618 5.65055 198.079 8.60504C200.539 11.5596 199.165 15.7527 195.622 18.7037C193.168 20.7469 185.719 23.0891 181.369 24.3365C180.069 24.7089 178.98 23.4009 179.582 22.19C181.596 18.1376 185.248 11.2362 187.702 9.19293ZM175.408 4.15094C178.22 3.84971 180.223 6.36838 180.581 9.70172C180.807 11.8161 179.475 16.5699 178.47 19.7642C178.066 21.0476 176.391 21.2275 175.724 20.0591C174.065 17.1506 171.755 12.787 171.528 10.6724C171.17 7.33894 172.595 4.45243 175.408 4.15094Z" fill="#F0F2F5"/>
<mask id="path-3-inside-1_2034_320" fill="white">
<path d="M177.857 213.871C180.117 213.366 182.921 212.857 184.242 213.079C186.647 213.484 188.396 215.01 188.065 216.976C187.734 218.942 185.583 219.813 183.177 219.408C181.856 219.186 179.373 217.786 177.403 216.57C176.243 215.853 176.526 214.168 177.857 213.871ZM181.192 196.693C184.736 193.742 189.108 193.151 191.568 196.105C194.028 199.06 192.655 203.253 189.111 206.204C186.657 208.247 179.209 210.589 174.859 211.837C173.559 212.209 172.47 210.901 173.072 209.69C175.086 205.638 178.738 198.736 181.192 196.693ZM168.897 191.651C171.71 191.35 173.714 193.868 174.071 197.202C174.298 199.316 172.966 204.07 171.961 207.264C171.557 208.548 169.88 208.728 169.214 207.559C167.555 204.651 165.245 200.287 165.018 198.173C164.661 194.839 166.085 191.953 168.897 191.651Z"/>
</mask>
<path d="M177.857 213.871C180.117 213.366 182.921 212.857 184.242 213.079C186.647 213.484 188.396 215.01 188.065 216.976C187.734 218.942 185.583 219.813 183.177 219.408C181.856 219.186 179.373 217.786 177.403 216.57C176.243 215.853 176.526 214.168 177.857 213.871ZM181.192 196.693C184.736 193.742 189.108 193.151 191.568 196.105C194.028 199.06 192.655 203.253 189.111 206.204C186.657 208.247 179.209 210.589 174.859 211.837C173.559 212.209 172.47 210.901 173.072 209.69C175.086 205.638 178.738 198.736 181.192 196.693ZM168.897 191.651C171.71 191.35 173.714 193.868 174.071 197.202C174.298 199.316 172.966 204.07 171.961 207.264C171.557 208.548 169.88 208.728 169.214 207.559C167.555 204.651 165.245 200.287 165.018 198.173C164.661 194.839 166.085 191.953 168.897 191.651Z" fill="#DDEFF8"/>
<path d="M177.857 213.871L177.361 211.647L177.361 211.647L177.857 213.871ZM184.242 213.079L184.62 210.832L184.62 210.832L184.242 213.079ZM188.065 216.976L190.312 217.354L190.312 217.354L188.065 216.976ZM183.177 219.408L182.799 221.655L182.799 221.655L183.177 219.408ZM177.403 216.57L176.206 218.509L176.206 218.509L177.403 216.57ZM181.192 196.693L179.734 194.942L179.734 194.942L181.192 196.693ZM191.568 196.105L193.319 194.647L193.319 194.647L191.568 196.105ZM189.111 206.204L190.569 207.955L190.569 207.955L189.111 206.204ZM174.859 211.837L175.487 214.027L175.487 214.027L174.859 211.837ZM173.072 209.69L171.032 208.676L171.032 208.676L173.072 209.69ZM168.897 191.651L168.654 189.385L168.654 189.385L168.897 191.651ZM174.071 197.202L176.337 196.959L176.337 196.959L174.071 197.202ZM171.961 207.264L174.134 207.948L174.134 207.948L171.961 207.264ZM169.214 207.559L167.234 208.688L167.234 208.688L169.214 207.559ZM165.018 198.173L162.753 198.415L162.753 198.416L165.018 198.173ZM177.857 213.871L178.354 216.095C179.455 215.849 180.656 215.609 181.721 215.458C182.87 215.296 183.587 215.279 183.864 215.326L184.242 213.079L184.62 210.832C183.576 210.656 182.23 210.783 181.082 210.946C179.849 211.121 178.518 211.388 177.361 211.647L177.857 213.871ZM184.242 213.079L183.864 215.326C184.724 215.471 185.3 215.793 185.59 216.075C185.834 216.312 185.841 216.461 185.818 216.598L188.065 216.976L190.312 217.354C190.62 215.526 189.918 213.928 188.769 212.809C187.666 211.736 186.165 211.092 184.62 210.832L184.242 213.079ZM188.065 216.976L185.818 216.598C185.795 216.736 185.74 216.874 185.432 217.018C185.065 217.19 184.416 217.306 183.556 217.161L183.177 219.408L182.799 221.655C184.344 221.915 185.973 221.798 187.367 221.144C188.819 220.463 190.005 219.183 190.312 217.354L188.065 216.976ZM183.177 219.408L183.556 217.161C183.278 217.114 182.607 216.864 181.574 216.334C180.617 215.843 179.561 215.224 178.6 214.631L177.403 216.57L176.206 218.509C177.216 219.132 178.386 219.821 179.493 220.389C180.525 220.918 181.755 221.479 182.799 221.655L183.177 219.408ZM177.403 216.57L178.6 214.631C178.843 214.781 178.998 215.116 178.943 215.441C178.888 215.766 178.633 216.032 178.354 216.095L177.857 213.871L177.361 211.647C174.034 212.39 173.307 216.719 176.206 218.509L177.403 216.57ZM181.192 196.693L182.65 198.444C184.149 197.196 185.696 196.558 186.968 196.456C188.176 196.36 189.123 196.73 189.817 197.563L191.568 196.105L193.319 194.647C191.553 192.527 189.084 191.715 186.605 191.913C184.189 192.106 181.779 193.239 179.734 194.942L181.192 196.693ZM191.568 196.105L189.817 197.563C190.511 198.397 190.704 199.396 190.39 200.566C190.06 201.798 189.152 203.205 187.653 204.453L189.111 206.204L190.569 207.955C192.614 206.252 194.165 204.086 194.792 201.746C195.436 199.343 195.085 196.768 193.319 194.647L191.568 196.105ZM189.111 206.204L187.653 204.453C186.773 205.186 184.667 206.167 181.91 207.18C179.272 208.149 176.383 209.029 174.231 209.646L174.859 211.837L175.487 214.027C177.686 213.397 180.695 212.482 183.482 211.457C186.151 210.477 188.995 209.265 190.569 207.955L189.111 206.204ZM174.859 211.837L174.231 209.646C174.836 209.473 175.392 210.142 175.112 210.704L173.072 209.69L171.032 208.676C169.548 211.66 172.282 214.946 175.487 214.027L174.859 211.837ZM173.072 209.69L175.112 210.704C176.109 208.7 177.498 206.017 178.928 203.598C180.424 201.071 181.77 199.177 182.65 198.444L181.192 196.693L179.734 194.942C178.16 196.252 176.454 198.831 175.006 201.278C173.494 203.834 172.05 206.628 171.032 208.676L173.072 209.69ZM168.897 191.651L169.14 193.917C169.726 193.854 170.231 194.048 170.702 194.578C171.216 195.155 171.665 196.137 171.805 197.445L174.071 197.202L176.337 196.959C176.12 194.933 175.388 192.989 174.107 191.549C172.784 190.061 170.881 189.147 168.654 189.385L168.897 191.651ZM174.071 197.202L171.805 197.445C171.872 198.069 171.695 199.432 171.258 201.313C170.847 203.084 170.282 205.009 169.787 206.581L171.961 207.264L174.134 207.948C174.645 206.326 175.248 204.277 175.697 202.344C176.121 200.52 176.496 198.449 176.337 196.959L174.071 197.202ZM171.961 207.264L169.787 206.581C169.871 206.314 170.142 206.098 170.442 206.066C170.744 206.033 171.054 206.187 171.193 206.43L169.214 207.559L167.234 208.688C168.887 211.585 173.134 211.128 174.134 207.948L171.961 207.264ZM169.214 207.559L171.193 206.43C170.376 204.999 169.416 203.238 168.639 201.594C167.813 199.849 167.351 198.554 167.284 197.929L165.018 198.173L162.753 198.416C162.913 199.906 163.719 201.85 164.519 203.543C165.368 205.336 166.392 207.211 167.234 208.688L169.214 207.559ZM165.018 198.173L167.284 197.93C167.144 196.622 167.375 195.567 167.754 194.894C168.102 194.277 168.555 193.979 169.14 193.917L168.897 191.651L168.654 189.385C166.427 189.624 164.762 190.921 163.784 192.656C162.838 194.335 162.536 196.39 162.753 198.415L165.018 198.173Z" fill="#CCE7F5" mask="url(#path-3-inside-1_2034_320)"/>
<g clip-path="url(#clip1_2034_320)">
<path fill-rule="evenodd" clip-rule="evenodd" d="M219.249 175.661C227.009 175.661 233.113 170.695 236.465 167.702C237.816 166.497 237.816 164.482 236.465 163.277C233.113 160.284 227.009 155.318 219.249 155.318C211.49 155.318 205.385 160.284 202.033 163.277C200.682 164.482 200.682 166.497 202.033 167.702C205.385 170.695 211.49 175.661 219.249 175.661ZM219.249 172.586C223.169 172.586 226.346 169.409 226.346 165.49C226.346 161.57 223.169 158.393 219.249 158.393C215.33 158.393 212.153 161.57 212.153 165.49C212.153 169.409 215.33 172.586 219.249 172.586Z" fill="#D1E9D2"/>
</g>
<g clip-path="url(#clip2_2034_320)">
<path fill-rule="evenodd" clip-rule="evenodd" d="M49.9697 172.813C50.0695 173.82 49.24 174.642 48.2287 174.642H41.5909C40.5796 174.642 39.7814 173.811 39.553 172.826C38.7305 169.276 35.5486 166.631 31.7487 166.631C27.9488 166.631 24.7669 169.276 23.9443 172.826C23.7159 173.811 22.9177 174.642 21.9064 174.642H15.2686C14.2573 174.642 13.4279 173.82 13.5277 172.813C14.4452 163.559 22.2528 156.331 31.7487 156.331C41.2444 156.331 49.0521 163.559 49.9697 172.813Z" fill="#FFD8E5"/>
</g>
<g clip-path="url(#clip3_2034_320)">
<path d="M55.8093 193.197H60.3279C60.5358 193.197 60.7047 193.365 60.7048 193.573C60.7048 195.877 62.5722 197.745 64.8757 197.745H68.6658C72.1808 197.745 75.03 200.594 75.03 204.109C75.0301 206.245 76.7621 207.977 78.8982 207.977H80.0779C85.0984 207.977 89.1551 212.072 89.1082 217.092C89.1045 217.481 88.7881 217.795 88.3992 217.796H83.7644C83.6319 217.796 83.5242 217.688 83.5242 217.555C83.524 215.402 81.7788 213.657 79.6257 213.657H75.7146C72.1998 213.657 69.3504 210.808 69.3503 207.293C69.3503 205.156 67.6184 203.424 65.4822 203.424H64.3914C59.2277 203.424 55.0251 199.175 55.0251 193.993C55.0254 193.551 55.3853 193.197 55.8093 193.197Z" fill="#F6F7F9" stroke="#F0F2F5" stroke-width="2.27865"/>
</g>
<g clip-path="url(#clip4_2034_320)">
<path d="M225.76 51.9968C234.525 51.997 241.757 58.5646 242.802 67.0466L242.847 67.4519C242.873 67.7124 242.655 68.0291 242.24 68.0291H235.602C235.267 68.029 234.819 67.7213 234.674 67.0955C233.735 63.041 230.102 60.0185 225.76 60.0183C221.418 60.0183 217.785 63.0409 216.845 67.0955C216.7 67.7213 216.252 68.0291 215.917 68.0291H209.28C208.864 68.029 208.646 67.7125 208.672 67.4519C209.533 58.7746 216.856 51.9968 225.76 51.9968Z" fill="#E0F0E1" stroke="#D1E9D2" stroke-width="2.27865"/>
</g>
<g clip-path="url(#clip5_2034_320)">
<path d="M73.1154 27.2964H69.2045C65.0602 27.2964 61.7006 23.9368 61.7006 19.7925C61.7006 18.2855 60.4789 17.0638 58.9719 17.0638H57.8805C52.0785 17.0638 47.375 12.2953 47.375 6.49332C47.375 5.43068 48.2364 4.55733 49.2991 4.55733H53.8177C54.655 4.55733 55.3337 5.23604 55.3337 6.07327C55.3337 7.74773 56.6911 9.10514 58.3656 9.10514H62.1554C66.2997 9.10514 69.6593 12.4648 69.6593 16.609C69.6593 18.1161 70.881 19.3377 72.388 19.3377H73.567C79.2213 19.3377 83.79 23.9496 83.7369 29.6036C83.7273 30.6178 82.9024 31.4349 81.8882 31.4349H77.254C76.4922 31.4349 75.8747 30.8174 75.8747 30.0556C75.8747 28.5318 74.6393 27.2964 73.1154 27.2964Z" fill="#CCE7F5"/>
</g>
<rect x="0.5" y="98.96" width="31.25" height="31.25" rx="7.8125" fill="#DDEFF8"/>
<mask id="mask0_2034_320" style="mask-type:alpha" maskUnits="userSpaceOnUse" x="4" y="102" width="24" height="25">
<rect x="4.40625" y="102.866" width="23.4375" height="23.4375" fill="#D9D9D9"/>
</mask>
<g mask="url(#mask0_2034_320)">
<path d="M22.9609 115.562H21.0078C20.7311 115.562 20.4992 115.468 20.312 115.281C20.1248 115.094 20.0312 114.862 20.0312 114.585C20.0312 114.308 20.1248 114.076 20.312 113.889C20.4992 113.702 20.7311 113.608 21.0078 113.608H22.9609C23.2376 113.608 23.4696 113.702 23.6567 113.889C23.8439 114.076 23.9375 114.308 23.9375 114.585C23.9375 114.862 23.8439 115.094 23.6567 115.281C23.4696 115.468 23.2376 115.562 22.9609 115.562ZM18.6641 119.272C18.8268 119.045 19.0384 118.914 19.2988 118.882C19.5592 118.849 19.8034 118.914 20.0312 119.077L21.5938 120.249C21.8216 120.412 21.9518 120.623 21.9844 120.884C22.0169 121.144 21.9518 121.388 21.7891 121.616C21.6263 121.844 21.4147 121.974 21.1543 122.007C20.8939 122.039 20.6497 121.974 20.4219 121.812L18.8594 120.64C18.6315 120.477 18.5013 120.265 18.4688 120.005C18.4362 119.744 18.5013 119.5 18.6641 119.272ZM21.5938 108.921L20.0312 110.093C19.8034 110.256 19.5592 110.321 19.2988 110.288C19.0384 110.256 18.8268 110.125 18.6641 109.897C18.5013 109.67 18.4362 109.425 18.4688 109.165C18.5013 108.905 18.6315 108.693 18.8594 108.53L20.4219 107.358C20.6497 107.196 20.8939 107.131 21.1543 107.163C21.4147 107.196 21.6263 107.326 21.7891 107.554C21.9518 107.782 22.0169 108.026 21.9844 108.286C21.9518 108.547 21.8216 108.758 21.5938 108.921ZM11.2422 117.515H8.3125C8.03581 117.515 7.80387 117.421 7.6167 117.234C7.42952 117.047 7.33594 116.815 7.33594 116.538V112.632C7.33594 112.355 7.42952 112.123 7.6167 111.936C7.80387 111.749 8.03581 111.655 8.3125 111.655H11.2422L14.4648 108.433C14.7741 108.123 15.1281 108.054 15.5269 108.225C15.9256 108.396 16.125 108.701 16.125 109.141V120.029C16.125 120.469 15.9256 120.774 15.5269 120.945C15.1281 121.116 14.7741 121.047 14.4648 120.737L11.2422 117.515ZM14.1719 111.509L12.0723 113.608H9.28906V115.562H12.0723L14.1719 117.661V111.509Z" fill="#086391"/>
</g>
<rect x="109.88" y="15.63" width="31.25" height="31.25" rx="7.8125" fill="#E0F0E1"/>
<mask id="mask1_2034_320" style="mask-type:alpha" maskUnits="userSpaceOnUse" x="113" y="19" width="25" height="24">
<rect x="113.786" y="19.5362" width="23.4375" height="23.4375" fill="#D9D9D9"/>
</mask>
<g mask="url(#mask1_2034_320)">
<path d="M123.063 35.1612C121.289 35.1612 119.788 34.5468 118.559 33.318C117.33 32.0891 116.716 30.5877 116.716 28.8136C116.716 27.0395 117.33 25.538 118.559 24.3092C119.788 23.0803 121.289 22.4659 123.063 22.4659C124.838 22.4659 126.339 23.0803 127.568 24.3092C128.797 25.538 129.411 27.0395 129.411 28.8136C129.411 29.5297 129.297 30.2052 129.069 30.8399C128.841 31.4747 128.532 32.0362 128.142 32.5245L133.61 37.9933C133.789 38.1723 133.879 38.4002 133.879 38.6769C133.879 38.9535 133.789 39.1814 133.61 39.3604C133.431 39.5395 133.203 39.629 132.927 39.629C132.65 39.629 132.422 39.5395 132.243 39.3604L126.774 33.8917C126.286 34.2823 125.725 34.5916 125.09 34.8194C124.455 35.0473 123.78 35.1612 123.063 35.1612ZM123.063 33.2081C124.284 33.2081 125.322 32.7809 126.176 31.9264C127.031 31.0719 127.458 30.0343 127.458 28.8136C127.458 27.5929 127.031 26.5553 126.176 25.7008C125.322 24.8463 124.284 24.419 123.063 24.419C121.843 24.419 120.805 24.8463 119.951 25.7008C119.096 26.5553 118.669 27.5929 118.669 28.8136C118.669 30.0343 119.096 31.0719 119.951 31.9264C120.805 32.7809 121.843 33.2081 123.063 33.2081Z" fill="#1F7A22"/>
</g>
<rect x="219.25" y="98.96" width="31.25" height="31.25" rx="7.8125" fill="#F6F7F9"/>
<mask id="mask2_2034_320" style="mask-type:alpha" maskUnits="userSpaceOnUse" x="223" y="102" width="24" height="25">
<rect x="223.156" y="102.866" width="23.4375" height="23.4375" fill="#D9D9D9"/>
</mask>
<g mask="url(#mask2_2034_320)">
<path d="M235.852 114.194V110.679C235.852 110.402 235.758 110.17 235.571 109.983C235.384 109.796 235.152 109.702 234.875 109.702C234.598 109.702 234.366 109.796 234.179 109.983C233.992 110.17 233.898 110.402 233.898 110.679V114.561C233.898 114.691 233.923 114.817 233.972 114.939C234.021 115.061 234.094 115.171 234.191 115.269L237.414 118.491C237.593 118.67 237.821 118.76 238.098 118.76C238.374 118.76 238.602 118.67 238.781 118.491C238.96 118.312 239.05 118.084 239.05 117.808C239.05 117.531 238.96 117.303 238.781 117.124L235.852 114.194ZM234.875 124.351C233.524 124.351 232.255 124.094 231.066 123.582C229.878 123.069 228.845 122.373 227.966 121.494C227.087 120.615 226.391 119.582 225.878 118.394C225.366 117.205 225.109 115.936 225.109 114.585C225.109 113.234 225.366 111.965 225.878 110.776C226.391 109.588 227.087 108.555 227.966 107.676C228.845 106.797 229.878 106.101 231.066 105.588C232.255 105.076 233.524 104.819 234.875 104.819C236.226 104.819 237.495 105.076 238.684 105.588C239.872 106.101 240.905 106.797 241.784 107.676C242.663 108.555 243.359 109.588 243.872 110.776C244.384 111.965 244.641 113.234 244.641 114.585C244.641 115.936 244.384 117.205 243.872 118.394C243.359 119.582 242.663 120.615 241.784 121.494C240.905 122.373 239.872 123.069 238.684 123.582C237.495 124.094 236.226 124.351 234.875 124.351ZM234.875 122.397C237.04 122.397 238.883 121.637 240.405 120.115C241.927 118.593 242.688 116.75 242.688 114.585C242.688 112.42 241.927 110.577 240.405 109.055C238.883 107.533 237.04 106.772 234.875 106.772C232.71 106.772 230.867 107.533 229.345 109.055C227.823 110.577 227.062 112.42 227.062 114.585C227.062 116.75 227.823 118.593 229.345 120.115C230.867 121.637 232.71 122.397 234.875 122.397Z" fill="#62626A"/>
</g>
<rect x="109.88" y="205.73" width="31.25" height="31.25" rx="7.8125" fill="#FFEBF1"/>
<mask id="mask3_2034_320" style="mask-type:alpha" maskUnits="userSpaceOnUse" x="113" y="209" width="25" height="25">
<rect x="113.786" y="209.636" width="23.4375" height="23.4375" fill="#D9D9D9"/>
</mask>
<g mask="url(#mask3_2034_320)">
<path d="M125.505 229.485C125.277 229.485 125.045 229.444 124.809 229.363C124.573 229.281 124.366 229.151 124.187 228.972L122.502 227.434C120.777 225.855 119.218 224.289 117.827 222.734C116.435 221.18 115.739 219.467 115.739 217.595C115.739 216.065 116.252 214.788 117.277 213.762C118.303 212.737 119.58 212.224 121.11 212.224C121.973 212.224 122.787 212.407 123.552 212.773C124.317 213.14 124.968 213.64 125.505 214.275C126.042 213.64 126.693 213.14 127.458 212.773C128.223 212.407 129.037 212.224 129.899 212.224C131.429 212.224 132.707 212.737 133.732 213.762C134.758 214.788 135.271 216.065 135.271 217.595C135.271 219.467 134.579 221.184 133.195 222.747C131.812 224.309 130.241 225.88 128.483 227.458L126.823 228.972C126.644 229.151 126.437 229.281 126.201 229.363C125.965 229.444 125.733 229.485 125.505 229.485ZM124.577 216.228C124.105 215.561 123.601 215.052 123.063 214.702C122.526 214.352 121.875 214.177 121.11 214.177C120.134 214.177 119.32 214.503 118.669 215.154C118.018 215.805 117.692 216.619 117.692 217.595C117.692 218.442 117.993 219.341 118.596 220.293C119.198 221.245 119.918 222.169 120.756 223.064C121.595 223.959 122.457 224.797 123.344 225.579C124.231 226.36 124.951 227.003 125.505 227.507C126.058 227.003 126.778 226.36 127.666 225.579C128.553 224.797 129.415 223.959 130.253 223.064C131.092 222.169 131.812 221.245 132.414 220.293C133.016 219.341 133.317 218.442 133.317 217.595C133.317 216.619 132.992 215.805 132.341 215.154C131.69 214.503 130.876 214.177 129.899 214.177C129.134 214.177 128.483 214.352 127.946 214.702C127.409 215.052 126.905 215.561 126.433 216.228C126.319 216.391 126.18 216.513 126.018 216.594C125.855 216.676 125.684 216.716 125.505 216.716C125.326 216.716 125.155 216.676 124.992 216.594C124.829 216.513 124.691 216.391 124.577 216.228Z" fill="#F75C8A"/>
</g>
<path d="M159.209 74.3133H90.4883C82.4981 74.3133 76.0208 80.7906 76.0208 88.7809V153.885C76.0208 161.875 82.4981 168.353 90.4883 168.353H158.598C158.999 168.353 159.394 168.453 159.747 168.644L170.117 174.261C171.724 175.131 173.677 173.968 173.677 172.141V88.7809C173.677 80.7906 167.2 74.3133 159.209 74.3133Z" fill="#1D1D20"/>
<g clip-path="url(#clip6_2034_320)">
<path d="M90.4883 117.607V105.903H92.4714L96.3401 113.673L100.209 105.903H102.192V117.607H100.127V110.617L96.7302 117.607H95.95L92.5527 110.617V117.607H90.4883Z" fill="white"/>
<path d="M103.813 117.607L107.389 105.903H110.689L114.265 117.607H111.989L108.803 107.285H109.226L106.089 117.607H103.813ZM105.959 115.169V113.104H112.135V115.169H105.959Z" fill="white"/>
<path d="M115.874 117.607V105.903H120.815C120.929 105.903 121.081 105.909 121.271 105.92C121.466 105.925 121.639 105.941 121.791 105.968C122.49 106.077 123.061 106.307 123.506 106.659C123.955 107.012 124.286 107.456 124.497 107.992C124.709 108.523 124.814 109.117 124.814 109.772C124.814 110.753 124.57 111.593 124.083 112.292C123.595 112.985 122.831 113.413 121.791 113.576L120.815 113.641H118.085V117.607H115.874ZM122.473 117.607L120.165 112.844L122.441 112.405L124.977 117.607H122.473ZM118.085 111.576H120.718C120.832 111.576 120.956 111.571 121.092 111.56C121.227 111.549 121.352 111.528 121.466 111.495C121.764 111.414 121.994 111.278 122.157 111.089C122.319 110.894 122.43 110.68 122.49 110.447C122.555 110.208 122.587 109.983 122.587 109.772C122.587 109.561 122.555 109.339 122.49 109.106C122.43 108.867 122.319 108.653 122.157 108.464C121.994 108.269 121.764 108.13 121.466 108.049C121.352 108.017 121.227 107.995 121.092 107.984C120.956 107.973 120.832 107.968 120.718 107.968H118.085V111.576Z" fill="white"/>
<path d="M136.067 117.851L132.654 114.454L134.019 113.088L137.417 116.485L136.067 117.851ZM131.939 117.851C130.768 117.851 129.758 117.596 128.907 117.087C128.062 116.578 127.409 115.865 126.948 114.949C126.493 114.034 126.266 112.969 126.266 111.755C126.266 110.542 126.493 109.477 126.948 108.561C127.409 107.645 128.062 106.933 128.907 106.424C129.758 105.914 130.768 105.66 131.939 105.66C133.109 105.66 134.117 105.914 134.962 106.424C135.813 106.933 136.466 107.645 136.921 108.561C137.381 109.477 137.612 110.542 137.612 111.755C137.612 112.969 137.381 114.034 136.921 114.949C136.466 115.865 135.813 116.578 134.962 117.087C134.117 117.596 133.109 117.851 131.939 117.851ZM131.939 115.77C132.681 115.781 133.299 115.621 133.792 115.291C134.285 114.96 134.653 114.492 134.897 113.885C135.146 113.278 135.271 112.568 135.271 111.755C135.271 110.943 135.146 110.238 134.897 109.642C134.653 109.046 134.285 108.583 133.792 108.252C133.299 107.922 132.681 107.751 131.939 107.74C131.196 107.729 130.579 107.889 130.086 108.22C129.593 108.55 129.221 109.019 128.972 109.626C128.728 110.233 128.606 110.943 128.606 111.755C128.606 112.568 128.728 113.272 128.972 113.868C129.221 114.464 129.593 114.928 130.086 115.258C130.579 115.589 131.196 115.759 131.939 115.77Z" fill="white"/>
<path d="M144.149 117.851C143.206 117.851 142.377 117.661 141.662 117.282C140.947 116.897 140.389 116.358 139.988 115.665C139.587 114.971 139.387 114.156 139.387 113.218V105.92L141.63 105.903V113.202C141.63 113.587 141.695 113.936 141.825 114.25C141.955 114.565 142.134 114.836 142.361 115.063C142.594 115.291 142.862 115.467 143.166 115.591C143.475 115.711 143.802 115.77 144.149 115.77C144.507 115.77 144.837 115.708 145.141 115.583C145.45 115.459 145.718 115.283 145.945 115.055C146.173 114.827 146.349 114.557 146.474 114.242C146.604 113.928 146.669 113.581 146.669 113.202V105.903H148.912V113.218C148.912 114.156 148.711 114.971 148.311 115.665C147.91 116.358 147.351 116.897 146.636 117.282C145.921 117.661 145.092 117.851 144.149 117.851Z" fill="white"/>
<path d="M151.333 117.607V105.903H158.973V107.968H153.544V110.471H157.998V112.536H153.544V115.543H158.973V117.607H151.333Z" fill="white"/>
<path d="M94.6752 136.465V125.922H90.6394V123.665H101.129V125.922H97.0931V136.465H94.6752Z" fill="white"/>
<path d="M101.488 136.465L105.399 123.665H109.008L112.92 136.465H110.431L106.946 125.176H107.408L103.977 136.465H101.488ZM103.835 133.799V131.541H110.591V133.799H103.835Z" fill="white"/>
<path d="M114.68 136.465V123.665H120.085C120.209 123.665 120.375 123.671 120.582 123.682C120.796 123.688 120.985 123.706 121.151 123.736C121.916 123.854 122.541 124.106 123.027 124.491C123.519 124.877 123.88 125.362 124.111 125.949C124.343 126.53 124.458 127.179 124.458 127.896C124.458 128.613 124.34 129.265 124.103 129.852C123.871 130.432 123.51 130.915 123.018 131.301C122.532 131.686 121.91 131.938 121.151 132.056C120.985 132.08 120.796 132.098 120.582 132.11C120.369 132.121 120.203 132.127 120.085 132.127H117.098V136.465H114.68ZM117.098 129.869H119.978C120.102 129.869 120.239 129.863 120.387 129.852C120.535 129.84 120.671 129.816 120.796 129.781C121.122 129.692 121.374 129.543 121.551 129.336C121.729 129.123 121.851 128.889 121.916 128.634C121.987 128.373 122.022 128.127 122.022 127.896C122.022 127.665 121.987 127.422 121.916 127.167C121.851 126.906 121.729 126.672 121.551 126.465C121.374 126.251 121.122 126.1 120.796 126.011C120.671 125.976 120.535 125.952 120.387 125.94C120.239 125.928 120.102 125.922 119.978 125.922H117.098V129.869Z" fill="white"/>
<path d="M124.635 136.465L128.547 123.665H132.156L136.067 136.465H133.578L130.093 125.176H130.556L127.124 136.465H124.635ZM126.982 133.799V131.541H133.738V133.799H126.982Z" fill="white"/>
<path d="M142.813 136.732C142.007 136.732 141.24 136.59 140.511 136.305C139.782 136.015 139.136 135.588 138.573 135.025C138.016 134.462 137.575 133.766 137.249 132.936C136.929 132.107 136.769 131.149 136.769 130.065C136.769 128.649 137.038 127.446 137.578 126.456C138.123 125.46 138.852 124.702 139.764 124.18C140.683 123.659 141.699 123.398 142.813 123.398C144.461 123.398 145.756 123.78 146.698 124.545C147.64 125.309 148.272 126.391 148.592 127.789L146.12 128.145C145.889 127.398 145.51 126.803 144.982 126.358C144.461 125.908 143.791 125.68 142.973 125.674C142.162 125.662 141.486 125.837 140.947 126.198C140.407 126.56 140.001 127.072 139.729 127.736C139.462 128.4 139.329 129.176 139.329 130.065C139.329 130.954 139.462 131.724 139.729 132.376C140.001 133.028 140.407 133.535 140.947 133.896C141.486 134.258 142.162 134.445 142.973 134.456C143.525 134.468 144.022 134.373 144.467 134.172C144.917 133.97 145.297 133.653 145.605 133.221C145.913 132.788 146.132 132.234 146.263 131.558H144.236V129.692H148.84C148.852 129.769 148.861 129.905 148.867 130.101C148.873 130.296 148.876 130.409 148.876 130.438C148.876 131.665 148.627 132.753 148.129 133.701C147.632 134.649 146.929 135.393 146.023 135.932C145.116 136.465 144.046 136.732 142.813 136.732Z" fill="white"/>
<path d="M150.824 136.465V123.665H159.18V125.922H153.242V128.66H158.114V130.918H153.242V134.207H159.18V136.465H150.824Z" fill="white"/>
</g>
<defs>
<clipPath id="clip0_2034_320">
<rect width="36.4583" height="36.4583" fill="white" transform="translate(7.0105 41.6667)"/>
</clipPath>
<clipPath id="clip1_2034_320">
<rect width="36.4583" height="36.4583" fill="white" transform="translate(201.02 147.14)"/>
</clipPath>
<clipPath id="clip2_2034_320">
<rect width="36.4583" height="36.4583" fill="white" transform="translate(13.52 147.14)"/>
</clipPath>
<clipPath id="clip3_2034_320">
<rect width="36.4583" height="36.4583" fill="white" transform="translate(53.8855 187.5)"/>
</clipPath>
<clipPath id="clip4_2034_320">
<rect width="36.4583" height="36.4583" fill="white" transform="translate(207.531 41.6667)"/>
</clipPath>
<clipPath id="clip5_2034_320">
<rect width="36.4583" height="36.4583" fill="white" transform="translate(47.375)"/>
</clipPath>
<clipPath id="clip6_2034_320">
<rect width="68.7211" height="94.0394" fill="white" transform="translate(90.4883 74.3132)"/>
</clipPath>
</defs>
</svg>
